<?xml version="1.0" encoding="iso-8859-1"?>
<!-- Generator: Adobe Illustrator 16.0.0, SVG Export Plug-In . SVG Version: 6.00 Build 0)  -->
<!DOCTYPE svg PUBLIC "-//W3C//DTD SVG 1.1//EN" "http://www.w3.org/Graphics/SVG/1.1/DTD/svg11.dtd">
<svg version="1.1" id="Capa_1" xmlns="http://www.w3.org/2000/svg" xmlns:xlink="http://www.w3.org/1999/xlink" x="0px" y="0px"
	 width="30.963px" height="30.963px" viewBox="0 0 30.963 30.963" style="enable-background:new 0 0 30.963 30.963;"
	 xml:space="preserve">
<g>
	<g>
		<path style="fill:#7b7d81;" d="M25.745,3.062V1.671c0-0.802-0.65-1.451-1.451-1.451c-0.802,0-1.451,0.649-1.451,1.451v1.391h-2.944V1.671
			c0-0.802-0.648-1.451-1.451-1.451c-0.801,0-1.45,0.649-1.45,1.451v1.391h-2.946V1.671c0-0.802-0.65-1.451-1.451-1.451
			c-0.802,0-1.451,0.649-1.451,1.451v1.391H8.206V1.671c0-0.802-0.65-1.451-1.452-1.451c-0.801,0-1.451,0.649-1.451,1.451v1.391H0
			v27.681h30.963V3.062H25.745z M2.902,5.964h2.4V6.47c0,0.802,0.65,1.452,1.451,1.452c0.802,0,1.452-0.65,1.452-1.452V5.964h2.943
			V6.47c0,0.802,0.649,1.452,1.451,1.452c0.801,0,1.451-0.65,1.451-1.452V5.964h2.944V6.47c0,0.802,0.65,1.452,1.451,1.452
			c0.802,0,1.451-0.65,1.451-1.452V5.964h2.943V6.47c0,0.802,0.648,1.452,1.451,1.452c0.801,0,1.451-0.65,1.451-1.452V5.964h2.314
			v4.141H2.902V5.964z M2.902,27.84V12.041h25.159V27.84H2.902z"/>
		<rect style="fill:#7b7d81;" x="5.302" y="14.927" width="3.342" height="3.342"/>
		<rect style="fill:#7b7d81;" x="11.188" y="14.927" width="3.342" height="3.342"/>
		<rect style="fill:#7b7d81;" x="17.075" y="14.927" width="3.342" height="3.342"/>
		<rect style="fill:#7b7d81;" x="22.96" y="14.927" width="3.342" height="3.342"/>
		<rect style="fill:#7b7d81;" x="5.302" y="21.61" width="3.342" height="3.341"/>
		<rect style="fill:#7b7d81;" x="11.188" y="21.61" width="3.342" height="3.341"/>
		<rect style="fill:#7b7d81;" x="17.075" y="21.61" width="3.342" height="3.341"/>
		<rect style="fill:#7b7d81;" x="22.96" y="21.61" width="3.342" height="3.341"/>
	</g>
</g>
<g>
</g>
<g>
</g>
<g>
</g>
<g>
</g>
<g>
</g>
<g>
</g>
<g>
</g>
<g>
</g>
<g>
</g>
<g>
</g>
<g>
</g>
<g>
</g>
<g>
</g>
<g>
</g>
<g>
</g>
</svg>
